<?xml version="1.0" encoding="utf-8"?>
<!-- Generator: Adobe Illustrator 26.0.3, SVG Export Plug-In . SVG Version: 6.00 Build 0)  -->
<svg version="1.1" id="Capa_1" xmlns="http://www.w3.org/2000/svg" xmlns:xlink="http://www.w3.org/1999/xlink" x="0px" y="0px"
	 viewBox="0 0 1400 800" style="enable-background:new 0 0 1400 800;" xml:space="preserve">
<style type="text/css">
	.st0{fill:#021426;}
	.st1{fill:#FFFFFF;}
	.st2{fill-rule:evenodd;clip-rule:evenodd;fill:#FCFCFC;}
	.st3{fill:#FCFCFC;}
</style>
<path class="st0" d="M1044.51,162.35v439.99c0,6.6-5.4,12-12,12H325.27c-6.6,0-12-5.4-12-12V162.35c0-6.6,5.4-12,12-12h707.23
	C1039.11,150.35,1044.51,155.75,1044.51,162.35z"/>
<g>
	<path class="st1" d="M403.59,524.91v2.37h-13.75v8.3h12.94v2.37h-12.94v9.11h14.36v2.37h-16.96v-24.52H403.59z"/>
	<path class="st1" d="M410.41,543.99c0.01,0.64,0.12,1.19,0.33,1.63s0.5,0.81,0.86,1.09s0.79,0.49,1.27,0.62s1.02,0.19,1.61,0.19
		c0.47,0,0.96-0.04,1.49-0.13s1-0.24,1.43-0.45s0.79-0.5,1.07-0.85s0.42-0.81,0.42-1.36c0-0.5-0.15-0.93-0.46-1.28
		s-0.7-0.66-1.2-0.93s-1.05-0.51-1.69-0.73s-1.28-0.44-1.93-0.68s-1.3-0.49-1.93-0.76s-1.2-0.61-1.69-0.99s-0.89-0.84-1.2-1.37
		s-0.46-1.16-0.46-1.9c0-0.77,0.17-1.46,0.51-2.07s0.79-1.12,1.36-1.54s1.22-0.73,1.96-0.95s1.51-0.33,2.3-0.33
		c0.9,0,1.74,0.11,2.51,0.33s1.45,0.54,2.03,0.97s1.04,0.96,1.39,1.6s0.54,1.37,0.57,2.21h-2.67c-0.06-0.47-0.2-0.88-0.41-1.23
		s-0.5-0.64-0.84-0.87s-0.74-0.4-1.18-0.51s-0.91-0.17-1.4-0.17c-0.57,0-1.08,0.07-1.52,0.21s-0.81,0.33-1.11,0.57
		s-0.52,0.52-0.68,0.83s-0.23,0.64-0.23,0.98c0,0.46,0.15,0.86,0.46,1.2s0.7,0.64,1.2,0.91s1.05,0.52,1.69,0.74s1.28,0.45,1.93,0.69
		s1.3,0.5,1.93,0.78s1.2,0.61,1.69,0.98s0.89,0.8,1.2,1.29s0.46,1.07,0.46,1.74c0,0.96-0.19,1.78-0.57,2.45s-0.89,1.22-1.54,1.65
		s-1.39,0.74-2.24,0.94s-1.74,0.3-2.66,0.3c-0.9,0-1.76-0.12-2.57-0.36s-1.52-0.6-2.13-1.08s-1.1-1.08-1.47-1.81
		s-0.57-1.58-0.61-2.55H410.41z"/>
	<path class="st1" d="M428.94,526.58v4.96h3.16v2.21h-3.16v11.72c0,0.39,0.05,0.71,0.15,0.98s0.23,0.47,0.4,0.63
		s0.37,0.27,0.61,0.33s0.49,0.1,0.76,0.1c0.33,0,0.67-0.03,1.02-0.1s0.66-0.13,0.91-0.18v2.13c-0.3,0.09-0.7,0.19-1.19,0.28
		s-0.99,0.14-1.5,0.14c-0.45,0-0.89-0.06-1.34-0.18s-0.86-0.32-1.21-0.59s-0.65-0.62-0.87-1.05s-0.33-0.95-0.33-1.57v-12.64h-2.74
		v-2.21h2.74v-4.96H428.94z"/>
	<path class="st1" d="M450.84,549.58c-0.16,0.06-0.38,0.11-0.64,0.15s-0.48,0.06-0.66,0.06c-0.73,0-1.34-0.28-1.84-0.83
		s-0.78-1.41-0.83-2.56c-0.56,0.73-1.12,1.31-1.66,1.76s-1.09,0.79-1.63,1.03s-1.08,0.4-1.63,0.48s-1.1,0.12-1.66,0.12
		c-0.73,0-1.41-0.12-2.04-0.35s-1.19-0.57-1.66-1s-0.85-0.96-1.12-1.56s-0.4-1.29-0.4-2.04s0.16-1.39,0.49-1.92s0.76-0.99,1.31-1.38
		s1.16-0.71,1.85-0.98s1.39-0.5,2.11-0.7s1.43-0.4,2.12-0.59s1.31-0.4,1.85-0.62s0.98-0.49,1.31-0.79s0.49-0.67,0.49-1.12
		c0-0.52-0.1-0.97-0.3-1.37s-0.48-0.74-0.84-1.01s-0.8-0.48-1.32-0.62s-1.08-0.21-1.71-0.21c-0.53,0-1.03,0.07-1.49,0.2
		s-0.89,0.33-1.27,0.59s-0.69,0.57-0.93,0.95s-0.4,0.81-0.47,1.3h-2.72c0.06-0.87,0.29-1.63,0.7-2.3s0.93-1.23,1.56-1.68
		s1.35-0.79,2.15-1.03s1.63-0.35,2.47-0.35c0.91,0,1.78,0.11,2.59,0.33s1.53,0.56,2.15,1.02s1.11,1.03,1.48,1.73
		s0.54,1.51,0.54,2.45v9.26c0,0.46,0.11,0.82,0.34,1.1s0.51,0.41,0.85,0.41c0.15,0,0.3-0.02,0.44-0.07V549.58z M446.6,539.49
		c-0.36,0.39-0.83,0.71-1.42,0.96s-1.2,0.48-1.86,0.68s-1.33,0.39-2,0.58s-1.27,0.41-1.82,0.67s-0.99,0.57-1.33,0.94
		s-0.51,0.83-0.51,1.4c0,0.5,0.09,0.93,0.26,1.28s0.4,0.64,0.69,0.87s0.6,0.4,0.97,0.5s0.73,0.16,1.11,0.16
		c1.08,0,2.14-0.33,3.17-0.98s1.95-1.66,2.73-3.02V539.49z"/>
	<path class="st1" d="M454.48,531.54h2.6v2.76c0.36-0.55,0.77-1.02,1.22-1.42s0.92-0.71,1.41-0.97s0.98-0.44,1.47-0.55
		s0.96-0.18,1.41-0.18c0.89,0,1.73,0.24,2.51,0.73s1.51,1.33,2.16,2.52c0.34-0.57,0.74-1.07,1.19-1.48s0.93-0.75,1.43-1.01
		s1.02-0.46,1.55-0.58s1.04-0.18,1.55-0.18c0.81,0,1.55,0.13,2.22,0.4s1.26,0.64,1.75,1.12s0.88,1.04,1.15,1.7s0.41,1.37,0.41,2.13
		v12.9h-2.6v-12.16c0-0.74-0.1-1.35-0.31-1.83s-0.47-0.86-0.8-1.15s-0.7-0.49-1.12-0.6s-0.83-0.17-1.24-0.17
		c-0.54,0-1.08,0.12-1.63,0.36s-1.04,0.57-1.48,1s-0.8,0.93-1.07,1.51s-0.41,1.21-0.41,1.89v11.14h-2.6v-12.16
		c0-0.74-0.11-1.35-0.32-1.84s-0.48-0.87-0.8-1.15s-0.68-0.48-1.06-0.6s-0.76-0.18-1.11-0.18c-0.69,0-1.33,0.16-1.92,0.47
		s-1.11,0.72-1.55,1.21s-0.79,1.03-1.04,1.62s-0.38,1.14-0.38,1.67v10.95h-2.6V531.54z"/>
	<path class="st1" d="M482.59,540.54c0-1.27,0.17-2.46,0.52-3.59s0.86-2.12,1.53-2.97s1.51-1.53,2.5-2.03s2.12-0.76,3.4-0.76
		c1.29,0,2.43,0.25,3.43,0.76s1.84,1.18,2.52,2.03s1.21,1.84,1.56,2.97s0.54,2.33,0.54,3.59c0,1.25-0.18,2.44-0.54,3.56
		s-0.88,2.1-1.56,2.94s-1.53,1.51-2.52,2s-2.14,0.74-3.43,0.74c-1.28,0-2.41-0.25-3.4-0.74s-1.82-1.16-2.5-2s-1.18-1.83-1.53-2.94
		S482.59,541.79,482.59,540.54z M485.19,540.54c0,0.94,0.12,1.83,0.37,2.66s0.6,1.58,1.05,2.21s1.02,1.15,1.68,1.52
		s1.41,0.56,2.24,0.56s1.58-0.19,2.26-0.56s1.25-0.88,1.72-1.52s0.84-1.38,1.09-2.21s0.38-1.73,0.38-2.66s-0.13-1.83-0.38-2.68
		s-0.62-1.6-1.09-2.24s-1.05-1.16-1.72-1.54s-1.43-0.57-2.26-0.57s-1.58,0.19-2.24,0.57s-1.22,0.89-1.68,1.54s-0.81,1.39-1.05,2.24
		S485.19,539.6,485.19,540.54z"/>
	<path class="st1" d="M503.63,543.99c0.01,0.64,0.12,1.19,0.33,1.63s0.5,0.81,0.86,1.09s0.79,0.49,1.27,0.62s1.02,0.19,1.61,0.19
		c0.47,0,0.96-0.04,1.49-0.13s1-0.24,1.43-0.45s0.79-0.5,1.07-0.85s0.42-0.81,0.42-1.36c0-0.5-0.15-0.93-0.46-1.28
		s-0.7-0.66-1.2-0.93s-1.05-0.51-1.69-0.73s-1.28-0.44-1.93-0.68s-1.3-0.49-1.93-0.76s-1.2-0.61-1.69-0.99s-0.89-0.84-1.2-1.37
		s-0.46-1.16-0.46-1.9c0-0.77,0.17-1.46,0.51-2.07s0.79-1.12,1.36-1.54s1.22-0.73,1.96-0.95s1.51-0.33,2.3-0.33
		c0.9,0,1.74,0.11,2.51,0.33s1.45,0.54,2.03,0.97s1.04,0.96,1.39,1.6s0.54,1.37,0.57,2.21h-2.67c-0.06-0.47-0.2-0.88-0.41-1.23
		s-0.5-0.64-0.84-0.87s-0.74-0.4-1.18-0.51s-0.91-0.17-1.4-0.17c-0.57,0-1.08,0.07-1.52,0.21s-0.81,0.33-1.11,0.57
		s-0.52,0.52-0.68,0.83s-0.23,0.64-0.23,0.98c0,0.46,0.15,0.86,0.46,1.2s0.7,0.64,1.2,0.91s1.05,0.52,1.69,0.74s1.28,0.45,1.93,0.69
		s1.3,0.5,1.93,0.78s1.2,0.61,1.69,0.98s0.89,0.8,1.2,1.29s0.46,1.07,0.46,1.74c0,0.96-0.19,1.78-0.57,2.45s-0.89,1.22-1.54,1.65
		s-1.39,0.74-2.24,0.94s-1.74,0.3-2.66,0.3c-0.9,0-1.76-0.12-2.57-0.36s-1.52-0.6-2.13-1.08s-1.1-1.08-1.47-1.81
		s-0.57-1.58-0.61-2.55H503.63z"/>
	<path class="st1" d="M526.94,531.54h2.6v2.76c0.36-0.55,0.77-1.02,1.22-1.42s0.92-0.71,1.41-0.97s0.98-0.44,1.47-0.55
		s0.96-0.18,1.41-0.18c0.89,0,1.73,0.24,2.51,0.73s1.51,1.33,2.16,2.52c0.34-0.57,0.74-1.07,1.19-1.48s0.93-0.75,1.43-1.01
		s1.02-0.46,1.55-0.58s1.04-0.18,1.55-0.18c0.81,0,1.55,0.13,2.22,0.4s1.26,0.64,1.75,1.12s0.88,1.04,1.15,1.7s0.41,1.37,0.41,2.13
		v12.9h-2.6v-12.16c0-0.74-0.1-1.35-0.31-1.83s-0.47-0.86-0.8-1.15s-0.7-0.49-1.12-0.6s-0.83-0.17-1.24-0.17
		c-0.54,0-1.08,0.12-1.63,0.36s-1.04,0.57-1.48,1s-0.8,0.93-1.07,1.51s-0.41,1.21-0.41,1.89v11.14h-2.6v-12.16
		c0-0.74-0.11-1.35-0.32-1.84s-0.48-0.87-0.8-1.15s-0.68-0.48-1.06-0.6s-0.76-0.18-1.11-0.18c-0.69,0-1.33,0.16-1.92,0.47
		s-1.11,0.72-1.55,1.21s-0.79,1.03-1.04,1.62s-0.38,1.14-0.38,1.67v10.95h-2.6V531.54z"/>
	<path class="st1" d="M555.04,540.54c0-1.27,0.17-2.46,0.52-3.59s0.86-2.12,1.53-2.97s1.51-1.53,2.5-2.03s2.12-0.76,3.4-0.76
		c1.29,0,2.43,0.25,3.43,0.76s1.84,1.18,2.52,2.03s1.21,1.84,1.56,2.97s0.54,2.33,0.54,3.59c0,1.25-0.18,2.44-0.54,3.56
		s-0.88,2.1-1.56,2.94s-1.53,1.51-2.52,2s-2.14,0.74-3.43,0.74c-1.28,0-2.41-0.25-3.4-0.74s-1.82-1.16-2.5-2s-1.18-1.83-1.53-2.94
		S555.04,541.79,555.04,540.54z M557.65,540.54c0,0.94,0.12,1.83,0.37,2.66s0.6,1.58,1.05,2.21s1.02,1.15,1.68,1.52
		s1.41,0.56,2.24,0.56s1.58-0.19,2.26-0.56s1.25-0.88,1.72-1.52s0.84-1.38,1.09-2.21s0.38-1.73,0.38-2.66s-0.13-1.83-0.38-2.68
		s-0.62-1.6-1.09-2.24s-1.05-1.16-1.72-1.54s-1.43-0.57-2.26-0.57s-1.58,0.19-2.24,0.57s-1.22,0.89-1.68,1.54s-0.81,1.39-1.05,2.24
		S557.65,539.6,557.65,540.54z"/>
	<path class="st1" d="M588.76,549.43h-2.6v-2.69c-0.61,1.01-1.35,1.77-2.23,2.28s-1.78,0.76-2.69,0.76c-1.2,0-2.25-0.25-3.16-0.74
		s-1.68-1.16-2.29-2.01s-1.08-1.84-1.4-2.97s-0.47-2.33-0.47-3.59s0.15-2.46,0.46-3.59s0.76-2.11,1.37-2.95s1.37-1.51,2.28-2
		s1.96-0.74,3.16-0.74c0.84,0,1.68,0.21,2.52,0.64s1.66,1.17,2.47,2.24v-9.28h2.6V549.43z M586.16,540.19
		c-0.02-0.91-0.15-1.78-0.37-2.58s-0.54-1.51-0.95-2.12s-0.91-1.08-1.49-1.44s-1.25-0.54-2-0.54c-0.76,0-1.44,0.18-2.05,0.55
		s-1.11,0.87-1.52,1.5s-0.72,1.37-0.94,2.21s-0.33,1.74-0.33,2.69s0.11,1.85,0.33,2.69s0.53,1.59,0.94,2.23s0.92,1.15,1.52,1.53
		s1.29,0.56,2.05,0.56s1.44-0.18,2.04-0.54s1.1-0.85,1.51-1.47s0.72-1.34,0.94-2.17s0.33-1.71,0.33-2.66V540.19z"/>
	<path class="st1" d="M595.53,540.93c0.01,0.82,0.16,1.63,0.43,2.42s0.65,1.49,1.12,2.11s1.03,1.11,1.68,1.49s1.34,0.57,2.09,0.57
		c2.53,0,4.21-1.18,5.04-3.53h2.37c-0.2,0.91-0.53,1.73-1,2.45s-1.04,1.33-1.71,1.83s-1.41,0.88-2.21,1.13s-1.64,0.39-2.5,0.39
		c-1.23,0-2.34-0.26-3.33-0.79s-1.84-1.23-2.54-2.11s-1.24-1.9-1.62-3.05s-0.56-2.36-0.56-3.63c0-1.18,0.19-2.32,0.56-3.41
		s0.91-2.05,1.61-2.88s1.54-1.49,2.53-1.99s2.1-0.74,3.33-0.74c1.2,0,2.27,0.22,3.23,0.67s1.77,1.06,2.45,1.85s1.2,1.71,1.56,2.76
		s0.54,2.2,0.54,3.43v1.04H595.53z M605.93,538.92c-0.02-0.75-0.16-1.45-0.41-2.11s-0.6-1.23-1.05-1.72s-1-0.88-1.64-1.16
		s-1.37-0.42-2.16-0.42c-0.73,0-1.4,0.15-2.02,0.46s-1.16,0.71-1.62,1.21s-0.82,1.08-1.08,1.73s-0.4,1.32-0.41,2.01H605.93z"/>
	<path class="st1" d="M612.65,531.54h2.6l-0.11,2.97c0.55-0.97,1.2-1.72,1.94-2.23s1.61-0.77,2.61-0.77c0.08,0,0.2,0.01,0.34,0.02
		s0.3,0.03,0.46,0.04s0.31,0.04,0.46,0.07s0.26,0.06,0.34,0.1v2.65c-0.27-0.09-0.57-0.17-0.91-0.22s-0.59-0.08-0.76-0.08
		c-0.69,0-1.31,0.13-1.85,0.39s-1,0.61-1.37,1.05s-0.66,0.94-0.86,1.51s-0.3,1.16-0.3,1.78v10.62h-2.6V531.54z"/>
	<path class="st1" d="M624.32,531.54h2.6v2.64c0.91-1.05,1.9-1.82,2.95-2.29s2.14-0.7,3.25-0.7c0.83,0,1.58,0.12,2.23,0.37
		s1.21,0.6,1.67,1.05s0.81,1.01,1.05,1.66s0.36,1.38,0.36,2.19v12.97h-2.6V536.8c0-0.61-0.07-1.12-0.22-1.54s-0.36-0.75-0.63-1.01
		s-0.61-0.45-1.01-0.56s-0.84-0.18-1.34-0.18c-0.8,0-1.54,0.14-2.23,0.42s-1.29,0.65-1.81,1.12s-0.92,1-1.22,1.6
		s-0.45,1.23-0.45,1.87v10.92h-2.6V531.54z"/>
	<path class="st1" d="M646.33,524.79v3.04h-2.6v-3.04H646.33z M646.33,531.54v17.89h-2.6v-17.89H646.33z"/>
	<path class="st1" d="M664.24,531.54v2.48l-10.69,13.04h10.69v2.37h-14.1v-2.27l10.55-13.13h-10.55v-2.5H664.24z"/>
	<path class="st1" d="M682.5,549.58c-0.16,0.06-0.38,0.11-0.64,0.15s-0.48,0.06-0.66,0.06c-0.73,0-1.34-0.28-1.84-0.83
		s-0.78-1.41-0.83-2.56c-0.56,0.73-1.12,1.31-1.66,1.76s-1.09,0.79-1.63,1.03s-1.08,0.4-1.63,0.48s-1.1,0.12-1.66,0.12
		c-0.73,0-1.41-0.12-2.04-0.35s-1.19-0.57-1.66-1s-0.85-0.96-1.12-1.56s-0.4-1.29-0.4-2.04s0.16-1.39,0.49-1.92s0.76-0.99,1.31-1.38
		s1.16-0.71,1.85-0.98s1.39-0.5,2.11-0.7s1.43-0.4,2.12-0.59s1.31-0.4,1.85-0.62s0.98-0.49,1.31-0.79s0.49-0.67,0.49-1.12
		c0-0.52-0.1-0.97-0.3-1.37s-0.48-0.74-0.84-1.01s-0.8-0.48-1.32-0.62s-1.08-0.21-1.71-0.21c-0.53,0-1.03,0.07-1.49,0.2
		s-0.89,0.33-1.27,0.59s-0.69,0.57-0.93,0.95s-0.4,0.81-0.47,1.3h-2.72c0.06-0.87,0.29-1.63,0.7-2.3s0.93-1.23,1.56-1.68
		s1.35-0.79,2.15-1.03s1.63-0.35,2.47-0.35c0.91,0,1.78,0.11,2.59,0.33s1.53,0.56,2.15,1.02s1.11,1.03,1.48,1.73
		s0.54,1.51,0.54,2.45v9.26c0,0.46,0.11,0.82,0.34,1.1s0.51,0.41,0.85,0.41c0.15,0,0.3-0.02,0.44-0.07V549.58z M678.27,539.49
		c-0.36,0.39-0.83,0.71-1.42,0.96s-1.2,0.48-1.86,0.68s-1.33,0.39-2,0.58s-1.27,0.41-1.82,0.67s-0.99,0.57-1.33,0.94
		s-0.51,0.83-0.51,1.4c0,0.5,0.09,0.93,0.26,1.28s0.4,0.64,0.69,0.87s0.6,0.4,0.97,0.5s0.73,0.16,1.11,0.16
		c1.08,0,2.14-0.33,3.17-0.98s1.95-1.66,2.73-3.02V539.49z"/>
	<path class="st1" d="M686.14,531.54h2.6v2.64c0.91-1.05,1.9-1.82,2.95-2.29s2.14-0.7,3.25-0.7c0.83,0,1.58,0.12,2.23,0.37
		s1.21,0.6,1.67,1.05s0.81,1.01,1.05,1.66s0.36,1.38,0.36,2.19v12.97h-2.6V536.8c0-0.61-0.07-1.12-0.22-1.54s-0.36-0.75-0.63-1.01
		s-0.61-0.45-1.01-0.56s-0.84-0.18-1.34-0.18c-0.8,0-1.54,0.14-2.23,0.42s-1.29,0.65-1.81,1.12s-0.92,1-1.22,1.6
		s-0.45,1.23-0.45,1.87v10.92h-2.6V531.54z"/>
	<path class="st1" d="M719.21,549.43h-2.6v-2.69c-0.61,1.01-1.35,1.77-2.23,2.28s-1.78,0.76-2.69,0.76c-1.2,0-2.25-0.25-3.16-0.74
		s-1.68-1.16-2.29-2.01s-1.08-1.84-1.4-2.97s-0.47-2.33-0.47-3.59s0.15-2.46,0.46-3.59s0.76-2.11,1.37-2.95s1.37-1.51,2.28-2
		s1.96-0.74,3.16-0.74c0.84,0,1.68,0.21,2.52,0.64s1.66,1.17,2.47,2.24v-9.28h2.6V549.43z M716.6,540.19
		c-0.02-0.91-0.15-1.78-0.37-2.58s-0.54-1.51-0.95-2.12s-0.91-1.08-1.49-1.44s-1.25-0.54-2-0.54c-0.76,0-1.44,0.18-2.05,0.55
		s-1.11,0.87-1.52,1.5s-0.72,1.37-0.94,2.21s-0.33,1.74-0.33,2.69s0.11,1.85,0.33,2.69s0.53,1.59,0.94,2.23s0.92,1.15,1.52,1.53
		s1.29,0.56,2.05,0.56s1.44-0.18,2.04-0.54s1.1-0.85,1.51-1.47s0.72-1.34,0.94-2.17s0.33-1.71,0.33-2.66V540.19z"/>
	<path class="st1" d="M723.25,540.54c0-1.27,0.17-2.46,0.52-3.59s0.86-2.12,1.53-2.97s1.51-1.53,2.5-2.03s2.12-0.76,3.4-0.76
		c1.29,0,2.43,0.25,3.43,0.76s1.84,1.18,2.52,2.03s1.21,1.84,1.56,2.97s0.54,2.33,0.54,3.59c0,1.25-0.18,2.44-0.54,3.56
		s-0.88,2.1-1.56,2.94s-1.53,1.51-2.52,2s-2.14,0.74-3.43,0.74c-1.28,0-2.41-0.25-3.4-0.74s-1.82-1.16-2.5-2s-1.18-1.83-1.53-2.94
		S723.25,541.79,723.25,540.54z M725.85,540.54c0,0.94,0.12,1.83,0.37,2.66s0.6,1.58,1.05,2.21s1.02,1.15,1.68,1.52
		s1.41,0.56,2.24,0.56s1.58-0.19,2.26-0.56s1.25-0.88,1.72-1.52s0.84-1.38,1.09-2.21s0.38-1.73,0.38-2.66s-0.13-1.83-0.38-2.68
		s-0.62-1.6-1.09-2.24s-1.05-1.16-1.72-1.54s-1.43-0.57-2.26-0.57s-1.58,0.19-2.24,0.57s-1.22,0.89-1.68,1.54s-0.81,1.39-1.05,2.24
		S725.85,539.6,725.85,540.54z"/>
	<path class="st1" d="M751.51,531.54h2.6v2.64c0.91-1.05,1.9-1.82,2.95-2.29s2.14-0.7,3.25-0.7c0.83,0,1.58,0.12,2.23,0.37
		s1.21,0.6,1.67,1.05s0.81,1.01,1.05,1.66s0.36,1.38,0.36,2.19v12.97h-2.6V536.8c0-0.61-0.07-1.12-0.22-1.54s-0.36-0.75-0.63-1.01
		s-0.61-0.45-1.01-0.56s-0.84-0.18-1.34-0.18c-0.8,0-1.54,0.14-2.23,0.42s-1.29,0.65-1.81,1.12s-0.92,1-1.22,1.6
		s-0.45,1.23-0.45,1.87v10.92h-2.6V531.54z"/>
	<path class="st1" d="M785.04,549.43h-2.6v-3.2c-0.46,0.6-0.93,1.1-1.43,1.51s-1.01,0.74-1.54,0.99s-1.06,0.43-1.61,0.54
		s-1.1,0.16-1.66,0.16c-0.82,0-1.56-0.12-2.21-0.37s-1.2-0.6-1.66-1.05s-0.81-1.01-1.05-1.66s-0.36-1.38-0.36-2.19v-12.62h2.6v12.29
		c0,0.61,0.07,1.12,0.22,1.55s0.36,0.76,0.63,1.03s0.61,0.45,1.01,0.57s0.85,0.18,1.35,0.18c0.79,0,1.52-0.16,2.21-0.47
		s1.29-0.71,1.81-1.2s0.92-1.03,1.22-1.63s0.45-1.18,0.45-1.76v-10.56h2.6V549.43z"/>
	<path class="st1" d="M791.86,540.93c0.01,0.82,0.16,1.63,0.43,2.42s0.65,1.49,1.12,2.11s1.03,1.11,1.68,1.49s1.34,0.57,2.09,0.57
		c2.53,0,4.21-1.18,5.04-3.53h2.37c-0.2,0.91-0.53,1.73-1,2.45s-1.04,1.33-1.71,1.83s-1.41,0.88-2.21,1.13s-1.64,0.39-2.5,0.39
		c-1.23,0-2.34-0.26-3.33-0.79s-1.84-1.23-2.54-2.11s-1.24-1.9-1.62-3.05s-0.56-2.36-0.56-3.63c0-1.18,0.19-2.32,0.56-3.41
		s0.91-2.05,1.61-2.88s1.54-1.49,2.53-1.99s2.1-0.74,3.33-0.74c1.2,0,2.27,0.22,3.23,0.67s1.77,1.06,2.45,1.85s1.2,1.71,1.56,2.76
		s0.54,2.2,0.54,3.43v1.04H791.86z M802.26,538.92c-0.02-0.75-0.16-1.45-0.41-2.11s-0.6-1.23-1.05-1.72s-1-0.88-1.64-1.16
		s-1.37-0.42-2.16-0.42c-0.73,0-1.4,0.15-2.02,0.46s-1.16,0.71-1.62,1.21s-0.82,1.08-1.08,1.73s-0.4,1.32-0.41,2.01H802.26z"/>
	<path class="st1" d="M809.96,543.99c0.01,0.64,0.12,1.19,0.33,1.63s0.5,0.81,0.86,1.09s0.79,0.49,1.27,0.62s1.02,0.19,1.61,0.19
		c0.47,0,0.96-0.04,1.49-0.13s1-0.24,1.43-0.45s0.79-0.5,1.07-0.85s0.42-0.81,0.42-1.36c0-0.5-0.15-0.93-0.46-1.28
		s-0.7-0.66-1.2-0.93s-1.05-0.51-1.69-0.73s-1.28-0.44-1.93-0.68s-1.3-0.49-1.93-0.76s-1.2-0.61-1.69-0.99s-0.89-0.84-1.2-1.37
		s-0.46-1.16-0.46-1.9c0-0.77,0.17-1.46,0.51-2.07s0.79-1.12,1.36-1.54s1.22-0.73,1.96-0.95s1.51-0.33,2.3-0.33
		c0.9,0,1.74,0.11,2.51,0.33s1.45,0.54,2.03,0.97s1.04,0.96,1.39,1.6s0.54,1.37,0.57,2.21h-2.67c-0.06-0.47-0.2-0.88-0.41-1.23
		s-0.5-0.64-0.84-0.87s-0.74-0.4-1.18-0.51s-0.91-0.17-1.4-0.17c-0.57,0-1.08,0.07-1.52,0.21s-0.81,0.33-1.11,0.57
		s-0.52,0.52-0.68,0.83s-0.23,0.64-0.23,0.98c0,0.46,0.15,0.86,0.46,1.2s0.7,0.64,1.2,0.91s1.05,0.52,1.69,0.74s1.28,0.45,1.93,0.69
		s1.3,0.5,1.93,0.78s1.2,0.61,1.69,0.98s0.89,0.8,1.2,1.29s0.46,1.07,0.46,1.74c0,0.96-0.19,1.78-0.57,2.45s-0.89,1.22-1.54,1.65
		s-1.39,0.74-2.24,0.94s-1.74,0.3-2.66,0.3c-0.9,0-1.76-0.12-2.57-0.36s-1.52-0.6-2.13-1.08s-1.1-1.08-1.47-1.81
		s-0.57-1.58-0.61-2.55H809.96z"/>
	<path class="st1" d="M828.49,526.58v4.96h3.16v2.21h-3.16v11.72c0,0.39,0.05,0.71,0.15,0.98s0.23,0.47,0.4,0.63
		s0.37,0.27,0.61,0.33s0.49,0.1,0.76,0.1c0.33,0,0.67-0.03,1.02-0.1s0.66-0.13,0.91-0.18v2.13c-0.3,0.09-0.7,0.19-1.19,0.28
		s-0.99,0.14-1.5,0.14c-0.45,0-0.89-0.06-1.34-0.18s-0.86-0.32-1.21-0.59s-0.65-0.62-0.87-1.05s-0.33-0.95-0.33-1.57v-12.64h-2.74
		v-2.21h2.74v-4.96H828.49z"/>
	<path class="st1" d="M835.92,531.54h2.6l-0.11,2.97c0.55-0.97,1.2-1.72,1.94-2.23s1.61-0.77,2.61-0.77c0.08,0,0.2,0.01,0.34,0.02
		s0.3,0.03,0.46,0.04s0.31,0.04,0.46,0.07s0.26,0.06,0.34,0.1v2.65c-0.27-0.09-0.57-0.17-0.91-0.22s-0.59-0.08-0.76-0.08
		c-0.69,0-1.31,0.13-1.85,0.39s-1,0.61-1.37,1.05s-0.66,0.94-0.86,1.51s-0.3,1.16-0.3,1.78v10.62h-2.6V531.54z"/>
	<path class="st1" d="M862.06,549.58c-0.16,0.06-0.38,0.11-0.64,0.15s-0.48,0.06-0.66,0.06c-0.73,0-1.34-0.28-1.84-0.83
		s-0.78-1.41-0.83-2.56c-0.56,0.73-1.12,1.31-1.66,1.76s-1.09,0.79-1.63,1.03s-1.08,0.4-1.63,0.48s-1.1,0.12-1.66,0.12
		c-0.73,0-1.41-0.12-2.04-0.35s-1.19-0.57-1.66-1s-0.85-0.96-1.12-1.56s-0.4-1.29-0.4-2.04s0.16-1.39,0.49-1.92s0.76-0.99,1.31-1.38
		s1.16-0.71,1.85-0.98s1.39-0.5,2.11-0.7s1.43-0.4,2.12-0.59s1.31-0.4,1.85-0.62s0.98-0.49,1.31-0.79s0.49-0.67,0.49-1.12
		c0-0.52-0.1-0.97-0.3-1.37s-0.48-0.74-0.84-1.01s-0.8-0.48-1.32-0.62s-1.08-0.21-1.71-0.21c-0.53,0-1.03,0.07-1.49,0.2
		s-0.89,0.33-1.27,0.59s-0.69,0.57-0.93,0.95s-0.4,0.81-0.47,1.3h-2.72c0.06-0.87,0.29-1.63,0.7-2.3s0.93-1.23,1.56-1.68
		s1.35-0.79,2.15-1.03s1.63-0.35,2.47-0.35c0.91,0,1.78,0.11,2.59,0.33s1.53,0.56,2.15,1.02s1.11,1.03,1.48,1.73
		s0.54,1.51,0.54,2.45v9.26c0,0.46,0.11,0.82,0.34,1.1s0.51,0.41,0.85,0.41c0.15,0,0.3-0.02,0.44-0.07V549.58z M857.83,539.49
		c-0.36,0.39-0.83,0.71-1.42,0.96s-1.2,0.48-1.86,0.68s-1.33,0.39-2,0.58s-1.27,0.41-1.82,0.67s-0.99,0.57-1.33,0.94
		s-0.51,0.83-0.51,1.4c0,0.5,0.09,0.93,0.26,1.28s0.4,0.64,0.69,0.87s0.6,0.4,0.97,0.5s0.73,0.16,1.11,0.16
		c1.08,0,2.14-0.33,3.17-0.98s1.95-1.66,2.73-3.02V539.49z"/>
	<path class="st1" d="M883.67,534.77l-4.08,14.66h-2.72l-5.04-17.89h2.65l3.78,14.68l3.96-14.68h2.92l3.85,14.68l3.92-14.68h2.64
		l-5.04,17.89h-2.74L883.67,534.77z"/>
	<path class="st1" d="M899.8,540.93c0.01,0.82,0.16,1.63,0.43,2.42s0.65,1.49,1.12,2.11s1.03,1.11,1.68,1.49s1.34,0.57,2.09,0.57
		c2.53,0,4.21-1.18,5.04-3.53h2.37c-0.2,0.91-0.53,1.73-1,2.45s-1.04,1.33-1.71,1.83s-1.41,0.88-2.21,1.13s-1.64,0.39-2.5,0.39
		c-1.23,0-2.34-0.26-3.33-0.79s-1.84-1.23-2.54-2.11s-1.24-1.9-1.62-3.05s-0.56-2.36-0.56-3.63c0-1.18,0.19-2.32,0.56-3.41
		s0.91-2.05,1.61-2.88s1.54-1.49,2.53-1.99s2.1-0.74,3.33-0.74c1.2,0,2.27,0.22,3.23,0.67s1.77,1.06,2.45,1.85s1.2,1.71,1.56,2.76
		s0.54,2.2,0.54,3.43v1.04H899.8z M910.21,538.92c-0.02-0.75-0.16-1.45-0.41-2.11s-0.6-1.23-1.05-1.72s-1-0.88-1.64-1.16
		s-1.37-0.42-2.16-0.42c-0.73,0-1.4,0.15-2.02,0.46s-1.16,0.71-1.62,1.21s-0.82,1.08-1.08,1.73s-0.4,1.32-0.41,2.01H910.21z"/>
	<path class="st1" d="M916.92,524.79h2.6v9.28c0.3-0.42,0.65-0.81,1.05-1.16s0.81-0.66,1.25-0.91s0.89-0.46,1.34-0.6
		s0.9-0.21,1.32-0.21c1.21,0,2.26,0.25,3.17,0.76s1.66,1.2,2.27,2.07s1.06,1.87,1.36,3.01s0.46,2.35,0.46,3.61s-0.16,2.46-0.47,3.57
		s-0.77,2.08-1.39,2.91s-1.38,1.48-2.29,1.95s-1.97,0.71-3.18,0.71c-0.93,0-1.83-0.25-2.7-0.76s-1.6-1.27-2.19-2.28v2.69h-2.6
		V524.79z M919.53,540.65c0,0.95,0.11,1.84,0.32,2.66s0.52,1.55,0.93,2.17s0.91,1.11,1.5,1.47s1.27,0.54,2.03,0.54
		c0.77,0,1.46-0.18,2.06-0.54s1.1-0.84,1.52-1.46s0.73-1.34,0.94-2.16s0.32-1.71,0.32-2.66s-0.11-1.85-0.32-2.72
		s-0.52-1.62-0.94-2.28s-0.92-1.18-1.52-1.57s-1.28-0.59-2.06-0.59c-0.74,0-1.4,0.18-2,0.55s-1.1,0.86-1.51,1.48
		s-0.73,1.32-0.95,2.1s-0.33,1.6-0.33,2.44V540.65z"/>
	<path class="st1" d="M944,531.54h2.6v2.78c0.29-0.49,0.64-0.93,1.05-1.32s0.85-0.71,1.32-0.98s0.95-0.47,1.44-0.62
		s0.97-0.21,1.42-0.21c1.2,0,2.26,0.25,3.19,0.74s1.72,1.16,2.36,2s1.13,1.82,1.47,2.94s0.5,2.32,0.5,3.59s-0.16,2.46-0.49,3.59
		s-0.81,2.12-1.44,2.97s-1.41,1.52-2.34,2.02s-1.99,0.75-3.18,0.75c-0.46,0-0.93-0.06-1.42-0.19s-0.97-0.32-1.44-0.56
		s-0.92-0.55-1.34-0.92s-0.79-0.79-1.11-1.27v9.83H944V531.54z M946.6,540.91c0.01,0.91,0.15,1.77,0.41,2.58s0.62,1.5,1.06,2.09
		s0.98,1.06,1.6,1.41s1.3,0.52,2.04,0.52c0.77,0,1.47-0.19,2.09-0.57s1.15-0.89,1.59-1.53s0.78-1.39,1.01-2.24s0.35-1.76,0.35-2.71
		s-0.12-1.85-0.35-2.69s-0.57-1.58-1.01-2.22s-0.97-1.14-1.59-1.51s-1.32-0.55-2.09-0.55c-0.76,0-1.46,0.18-2.08,0.54
		s-1.16,0.86-1.61,1.49s-0.79,1.37-1.05,2.21s-0.38,1.73-0.38,2.68V540.91z"/>
	<path class="st1" d="M977.9,549.58c-0.16,0.06-0.38,0.11-0.64,0.15s-0.48,0.06-0.66,0.06c-0.73,0-1.34-0.28-1.84-0.83
		s-0.78-1.41-0.83-2.56c-0.56,0.73-1.12,1.31-1.66,1.76s-1.09,0.79-1.63,1.03s-1.08,0.4-1.63,0.48s-1.1,0.12-1.66,0.12
		c-0.73,0-1.41-0.12-2.04-0.35s-1.19-0.57-1.66-1s-0.85-0.96-1.12-1.56s-0.4-1.29-0.4-2.04s0.16-1.39,0.49-1.92s0.76-0.99,1.31-1.38
		s1.16-0.71,1.85-0.98s1.39-0.5,2.11-0.7s1.43-0.4,2.12-0.59s1.31-0.4,1.85-0.62s0.98-0.49,1.31-0.79s0.49-0.67,0.49-1.12
		c0-0.52-0.1-0.97-0.3-1.37s-0.48-0.74-0.84-1.01s-0.8-0.48-1.32-0.62s-1.08-0.21-1.71-0.21c-0.53,0-1.03,0.07-1.49,0.2
		s-0.89,0.33-1.27,0.59s-0.69,0.57-0.93,0.95s-0.4,0.81-0.47,1.3h-2.72c0.06-0.87,0.29-1.63,0.7-2.3s0.93-1.23,1.56-1.68
		s1.35-0.79,2.15-1.03s1.63-0.35,2.47-0.35c0.91,0,1.78,0.11,2.59,0.33s1.53,0.56,2.15,1.02s1.11,1.03,1.48,1.73
		s0.54,1.51,0.54,2.45v9.26c0,0.46,0.11,0.82,0.34,1.1s0.51,0.41,0.85,0.41c0.15,0,0.3-0.02,0.44-0.07V549.58z M973.67,539.49
		c-0.36,0.39-0.83,0.71-1.42,0.96s-1.2,0.48-1.86,0.68s-1.33,0.39-2,0.58s-1.27,0.41-1.82,0.67s-0.99,0.57-1.33,0.94
		s-0.51,0.83-0.51,1.4c0,0.5,0.09,0.93,0.26,1.28s0.4,0.64,0.69,0.87s0.6,0.4,0.97,0.5s0.73,0.16,1.11,0.16
		c1.08,0,2.14-0.33,3.17-0.98s1.95-1.66,2.73-3.02V539.49z"/>
	<path class="st1" d="M981.54,531.54h2.6l-0.11,2.97c0.55-0.97,1.2-1.72,1.94-2.23s1.61-0.77,2.61-0.77c0.08,0,0.2,0.01,0.34,0.02
		s0.3,0.03,0.46,0.04s0.31,0.04,0.46,0.07s0.26,0.06,0.34,0.1v2.65c-0.27-0.09-0.57-0.17-0.91-0.22s-0.59-0.08-0.76-0.08
		c-0.69,0-1.31,0.13-1.85,0.39s-1,0.61-1.37,1.05s-0.66,0.94-0.86,1.51s-0.3,1.16-0.3,1.78v10.62h-2.6V531.54z"/>
	<path class="st1" d="M1007.68,549.58c-0.16,0.06-0.38,0.11-0.64,0.15s-0.48,0.06-0.66,0.06c-0.73,0-1.34-0.28-1.84-0.83
		s-0.78-1.41-0.83-2.56c-0.56,0.73-1.12,1.31-1.66,1.76s-1.09,0.79-1.63,1.03s-1.08,0.4-1.63,0.48s-1.1,0.12-1.66,0.12
		c-0.73,0-1.41-0.12-2.04-0.35s-1.19-0.57-1.66-1s-0.85-0.96-1.12-1.56s-0.4-1.29-0.4-2.04s0.16-1.39,0.49-1.92s0.76-0.99,1.31-1.38
		s1.16-0.71,1.85-0.98s1.39-0.5,2.11-0.7s1.43-0.4,2.12-0.59s1.31-0.4,1.85-0.62s0.98-0.49,1.31-0.79s0.49-0.67,0.49-1.12
		c0-0.52-0.1-0.97-0.3-1.37s-0.48-0.74-0.84-1.01s-0.8-0.48-1.32-0.62s-1.08-0.21-1.71-0.21c-0.53,0-1.03,0.07-1.49,0.2
		s-0.89,0.33-1.27,0.59s-0.69,0.57-0.93,0.95s-0.4,0.81-0.47,1.3h-2.72c0.06-0.87,0.29-1.63,0.7-2.3s0.93-1.23,1.56-1.68
		s1.35-0.79,2.15-1.03s1.63-0.35,2.47-0.35c0.91,0,1.78,0.11,2.59,0.33s1.53,0.56,2.15,1.02s1.11,1.03,1.48,1.73
		s0.54,1.51,0.54,2.45v9.26c0,0.46,0.11,0.82,0.34,1.1s0.51,0.41,0.85,0.41c0.15,0,0.3-0.02,0.44-0.07V549.58z M1003.44,539.49
		c-0.36,0.39-0.83,0.71-1.42,0.96s-1.2,0.48-1.86,0.68s-1.33,0.39-2,0.58s-1.27,0.41-1.82,0.67s-0.99,0.57-1.33,0.94
		s-0.51,0.83-0.51,1.4c0,0.5,0.09,0.93,0.26,1.28s0.4,0.64,0.69,0.87s0.6,0.4,0.97,0.5s0.73,0.16,1.11,0.16
		c1.08,0,2.14-0.33,3.17-0.98s1.95-1.66,2.73-3.02V539.49z"/>
	<path class="st1" d="M497.91,567.99h2.6v9.28c0.3-0.42,0.65-0.81,1.05-1.16s0.81-0.66,1.25-0.91s0.89-0.46,1.34-0.6
		s0.9-0.21,1.32-0.21c1.21,0,2.26,0.25,3.17,0.76s1.66,1.2,2.27,2.07s1.06,1.87,1.36,3.01s0.46,2.35,0.46,3.61s-0.16,2.46-0.47,3.57
		s-0.77,2.08-1.39,2.91s-1.38,1.48-2.29,1.95s-1.97,0.71-3.18,0.71c-0.93,0-1.83-0.25-2.7-0.76s-1.6-1.27-2.19-2.28v2.69h-2.6
		V567.99z M500.51,583.85c0,0.95,0.11,1.84,0.32,2.66s0.52,1.55,0.93,2.17s0.91,1.11,1.5,1.47s1.27,0.54,2.03,0.54
		c0.77,0,1.46-0.18,2.06-0.54s1.1-0.84,1.52-1.46s0.73-1.34,0.94-2.16s0.32-1.71,0.32-2.66s-0.11-1.85-0.32-2.72
		s-0.52-1.62-0.94-2.28s-0.92-1.18-1.52-1.57s-1.28-0.59-2.06-0.59c-0.74,0-1.4,0.18-2,0.55s-1.1,0.86-1.51,1.48
		s-0.73,1.32-0.95,2.1s-0.33,1.6-0.33,2.44V583.85z"/>
	<path class="st1" d="M516.77,574.74h2.6l-0.11,2.97c0.55-0.97,1.2-1.72,1.94-2.23s1.61-0.77,2.61-0.77c0.08,0,0.2,0.01,0.34,0.02
		s0.3,0.03,0.46,0.04s0.31,0.04,0.46,0.07s0.26,0.06,0.34,0.1v2.65c-0.27-0.09-0.57-0.17-0.91-0.22s-0.59-0.08-0.76-0.08
		c-0.69,0-1.31,0.13-1.85,0.39s-1,0.61-1.37,1.05s-0.66,0.94-0.86,1.51s-0.3,1.16-0.3,1.78v10.62h-2.6V574.74z"/>
	<path class="st1" d="M531.04,567.99v3.04h-2.6v-3.04H531.04z M531.04,574.74v17.89h-2.6v-17.89H531.04z"/>
	<path class="st1" d="M536.33,574.74h2.6v2.64c0.91-1.05,1.9-1.82,2.95-2.29s2.14-0.7,3.25-0.7c0.83,0,1.58,0.12,2.23,0.37
		s1.21,0.6,1.67,1.05s0.81,1.01,1.05,1.66s0.36,1.38,0.36,2.19v12.97h-2.6V580c0-0.61-0.07-1.12-0.22-1.54s-0.36-0.75-0.63-1.01
		s-0.61-0.45-1.01-0.56s-0.84-0.18-1.34-0.18c-0.8,0-1.54,0.14-2.23,0.42s-1.29,0.65-1.81,1.12s-0.92,1-1.22,1.6
		s-0.45,1.23-0.45,1.87v10.92h-2.6V574.74z"/>
	<path class="st1" d="M569.4,592.63h-2.6v-2.69c-0.61,1.01-1.35,1.77-2.23,2.28s-1.78,0.76-2.69,0.76c-1.2,0-2.25-0.25-3.16-0.74
		s-1.68-1.16-2.29-2.01s-1.08-1.84-1.4-2.97s-0.47-2.33-0.47-3.59s0.15-2.46,0.46-3.59s0.76-2.11,1.37-2.95s1.37-1.51,2.28-2
		s1.96-0.74,3.16-0.74c0.84,0,1.68,0.21,2.52,0.64s1.66,1.17,2.47,2.24v-9.28h2.6V592.63z M566.79,583.39
		c-0.02-0.91-0.15-1.78-0.37-2.58s-0.54-1.51-0.95-2.12s-0.91-1.08-1.49-1.44s-1.25-0.54-2-0.54c-0.76,0-1.44,0.18-2.05,0.55
		s-1.11,0.87-1.52,1.5s-0.72,1.37-0.94,2.21s-0.33,1.74-0.33,2.69s0.11,1.85,0.33,2.69s0.53,1.59,0.94,2.23s0.92,1.15,1.52,1.53
		s1.29,0.56,2.05,0.56s1.44-0.18,2.04-0.54s1.1-0.85,1.51-1.47s0.72-1.34,0.94-2.17s0.33-1.71,0.33-2.66V583.39z"/>
	<path class="st1" d="M589.1,592.78c-0.16,0.06-0.38,0.11-0.64,0.15s-0.48,0.06-0.66,0.06c-0.73,0-1.34-0.28-1.84-0.83
		s-0.78-1.41-0.83-2.56c-0.56,0.73-1.12,1.31-1.66,1.76s-1.09,0.79-1.63,1.03s-1.08,0.4-1.63,0.48s-1.1,0.12-1.66,0.12
		c-0.73,0-1.41-0.12-2.04-0.35s-1.19-0.57-1.66-1s-0.85-0.96-1.12-1.56s-0.4-1.29-0.4-2.04s0.16-1.39,0.49-1.92s0.76-0.99,1.31-1.38
		s1.16-0.71,1.85-0.98s1.39-0.5,2.11-0.7s1.43-0.4,2.12-0.59s1.31-0.4,1.85-0.62s0.98-0.49,1.31-0.79s0.49-0.67,0.49-1.12
		c0-0.52-0.1-0.97-0.3-1.37s-0.48-0.74-0.84-1.01s-0.8-0.48-1.32-0.62s-1.08-0.21-1.71-0.21c-0.53,0-1.03,0.07-1.49,0.2
		s-0.89,0.33-1.27,0.59s-0.69,0.57-0.93,0.95s-0.4,0.81-0.47,1.3h-2.72c0.06-0.87,0.29-1.63,0.7-2.3s0.93-1.23,1.56-1.68
		s1.35-0.79,2.15-1.03s1.63-0.35,2.47-0.35c0.91,0,1.78,0.11,2.59,0.33s1.53,0.56,2.15,1.02s1.11,1.03,1.48,1.73
		s0.54,1.51,0.54,2.45v9.26c0,0.46,0.11,0.82,0.34,1.1s0.51,0.41,0.85,0.41c0.15,0,0.3-0.02,0.44-0.07V592.78z M584.87,582.69
		c-0.36,0.39-0.83,0.71-1.42,0.96s-1.2,0.48-1.86,0.68s-1.33,0.39-2,0.58s-1.27,0.41-1.82,0.67s-0.99,0.57-1.33,0.94
		s-0.51,0.83-0.51,1.4c0,0.5,0.09,0.93,0.26,1.28s0.4,0.64,0.69,0.87s0.6,0.4,0.97,0.5s0.73,0.16,1.11,0.16
		c1.08,0,2.14-0.33,3.17-0.98s1.95-1.66,2.73-3.02V582.69z"/>
	<path class="st1" d="M592.74,574.74h2.6l-0.11,2.97c0.55-0.97,1.2-1.72,1.94-2.23s1.61-0.77,2.61-0.77c0.08,0,0.2,0.01,0.34,0.02
		s0.3,0.03,0.46,0.04s0.31,0.04,0.46,0.07s0.26,0.06,0.34,0.1v2.65c-0.27-0.09-0.57-0.17-0.91-0.22s-0.59-0.08-0.76-0.08
		c-0.69,0-1.31,0.13-1.85,0.39s-1,0.61-1.37,1.05s-0.66,0.94-0.86,1.51s-0.3,1.16-0.3,1.78v10.62h-2.6V574.74z"/>
	<path class="st1" d="M607.84,569.78v4.96H611v2.21h-3.16v11.72c0,0.39,0.05,0.71,0.15,0.98s0.23,0.47,0.4,0.63s0.37,0.27,0.61,0.33
		s0.49,0.1,0.76,0.1c0.33,0,0.67-0.03,1.02-0.1s0.66-0.13,0.91-0.18v2.13c-0.3,0.09-0.7,0.19-1.19,0.28s-0.99,0.14-1.5,0.14
		c-0.45,0-0.89-0.06-1.34-0.18s-0.86-0.32-1.21-0.59s-0.65-0.62-0.87-1.05s-0.33-0.95-0.33-1.57v-12.64h-2.74v-2.21h2.74v-4.96
		H607.84z"/>
	<path class="st1" d="M616.8,584.13c0.01,0.82,0.16,1.63,0.43,2.42s0.65,1.49,1.12,2.11s1.03,1.11,1.68,1.49s1.34,0.57,2.09,0.57
		c2.53,0,4.21-1.18,5.04-3.53h2.37c-0.2,0.91-0.53,1.73-1,2.45s-1.04,1.33-1.71,1.83s-1.41,0.88-2.21,1.13s-1.64,0.39-2.5,0.39
		c-1.23,0-2.34-0.26-3.33-0.79s-1.84-1.23-2.54-2.11s-1.24-1.9-1.62-3.05s-0.56-2.36-0.56-3.63c0-1.18,0.19-2.32,0.56-3.41
		s0.91-2.05,1.61-2.88s1.54-1.49,2.53-1.99s2.1-0.74,3.33-0.74c1.2,0,2.27,0.22,3.23,0.67s1.77,1.06,2.45,1.85s1.2,1.71,1.56,2.76
		s0.54,2.2,0.54,3.43v1.04H616.8z M627.21,582.12c-0.02-0.75-0.16-1.45-0.41-2.11s-0.6-1.23-1.05-1.72s-1-0.88-1.64-1.16
		s-1.37-0.42-2.16-0.42c-0.73,0-1.4,0.15-2.02,0.46s-1.16,0.71-1.62,1.21s-0.82,1.08-1.08,1.73s-0.4,1.32-0.41,2.01H627.21z"/>
	<path class="st1" d="M656.25,592.63h-2.6v-3.2c-0.46,0.6-0.93,1.1-1.43,1.51s-1.01,0.74-1.54,0.99s-1.06,0.43-1.61,0.54
		s-1.1,0.16-1.66,0.16c-0.82,0-1.56-0.12-2.21-0.37s-1.2-0.6-1.66-1.05s-0.81-1.01-1.05-1.66s-0.36-1.38-0.36-2.19v-12.62h2.6v12.29
		c0,0.61,0.07,1.12,0.22,1.55s0.36,0.76,0.63,1.03s0.61,0.45,1.01,0.57s0.85,0.18,1.35,0.18c0.79,0,1.52-0.16,2.21-0.47
		s1.29-0.71,1.81-1.2s0.92-1.03,1.22-1.63s0.45-1.18,0.45-1.76v-10.56h2.6V592.63z"/>
	<path class="st1" d="M661.54,574.74h2.6v2.64c0.91-1.05,1.9-1.82,2.95-2.29s2.14-0.7,3.25-0.7c0.83,0,1.58,0.12,2.23,0.37
		s1.21,0.6,1.67,1.05s0.81,1.01,1.05,1.66s0.36,1.38,0.36,2.19v12.97h-2.6V580c0-0.61-0.07-1.12-0.22-1.54s-0.36-0.75-0.63-1.01
		s-0.61-0.45-1.01-0.56s-0.84-0.18-1.34-0.18c-0.8,0-1.54,0.14-2.23,0.42s-1.29,0.65-1.81,1.12s-0.92,1-1.22,1.6
		s-0.45,1.23-0.45,1.87v10.92h-2.6V574.74z"/>
	<path class="st1" d="M689.16,574.74h2.6v2.76c0.36-0.55,0.77-1.02,1.22-1.42s0.92-0.71,1.41-0.97s0.98-0.44,1.47-0.55
		s0.96-0.18,1.41-0.18c0.89,0,1.73,0.24,2.51,0.73s1.51,1.33,2.16,2.52c0.34-0.57,0.74-1.07,1.19-1.48s0.93-0.75,1.43-1.01
		s1.02-0.46,1.55-0.58s1.04-0.18,1.55-0.18c0.81,0,1.55,0.13,2.22,0.4s1.26,0.64,1.75,1.12s0.88,1.04,1.15,1.7s0.41,1.37,0.41,2.13
		v12.9h-2.6v-12.16c0-0.74-0.1-1.35-0.31-1.83s-0.47-0.86-0.8-1.15s-0.7-0.49-1.12-0.6s-0.83-0.17-1.24-0.17
		c-0.54,0-1.08,0.12-1.63,0.36s-1.04,0.57-1.48,1s-0.8,0.93-1.07,1.51s-0.41,1.21-0.41,1.89v11.14h-2.6v-12.16
		c0-0.74-0.11-1.35-0.32-1.84s-0.48-0.87-0.8-1.15s-0.68-0.48-1.06-0.6s-0.76-0.18-1.11-0.18c-0.69,0-1.33,0.16-1.92,0.47
		s-1.11,0.72-1.55,1.21s-0.79,1.03-1.04,1.62s-0.38,1.14-0.38,1.67v10.95h-2.6V574.74z"/>
	<path class="st1" d="M719.99,584.13c0.01,0.82,0.16,1.63,0.43,2.42s0.65,1.49,1.12,2.11s1.03,1.11,1.68,1.49s1.34,0.57,2.09,0.57
		c2.53,0,4.21-1.18,5.04-3.53h2.37c-0.2,0.91-0.53,1.73-1,2.45s-1.04,1.33-1.71,1.83s-1.41,0.88-2.21,1.13s-1.64,0.39-2.5,0.39
		c-1.23,0-2.34-0.26-3.33-0.79s-1.84-1.23-2.54-2.11s-1.24-1.9-1.62-3.05s-0.56-2.36-0.56-3.63c0-1.18,0.19-2.32,0.56-3.41
		s0.91-2.05,1.61-2.88s1.54-1.49,2.53-1.99s2.1-0.74,3.33-0.74c1.2,0,2.27,0.22,3.23,0.67s1.77,1.06,2.45,1.85s1.2,1.71,1.56,2.76
		s0.54,2.2,0.54,3.43v1.04H719.99z M730.39,582.12c-0.02-0.75-0.16-1.45-0.41-2.11s-0.6-1.23-1.05-1.72s-1-0.88-1.64-1.16
		s-1.37-0.42-2.16-0.42c-0.73,0-1.4,0.15-2.02,0.46s-1.16,0.71-1.62,1.21s-0.82,1.08-1.08,1.73s-0.4,1.32-0.41,2.01H730.39z"/>
	<path class="st1" d="M739.89,574.74v20.51c0,0.93-0.12,1.71-0.36,2.35s-0.56,1.16-0.97,1.56s-0.87,0.7-1.4,0.88
		s-1.08,0.27-1.65,0.27c-0.23,0-0.5-0.02-0.79-0.06s-0.56-0.13-0.79-0.25v-2.27c0.26,0.13,0.48,0.21,0.68,0.24s0.34,0.04,0.45,0.04
		c0.67,0,1.21-0.25,1.62-0.75s0.62-1.2,0.62-2.1v-20.43H739.89z M739.89,567.99v3.04h-2.6v-3.04H739.89z"/>
	<path class="st1" d="M744.16,583.74c0-1.27,0.17-2.46,0.52-3.59s0.86-2.12,1.53-2.97s1.51-1.53,2.5-2.03s2.12-0.76,3.4-0.76
		c1.29,0,2.43,0.25,3.43,0.76s1.84,1.18,2.52,2.03s1.21,1.84,1.56,2.97s0.54,2.33,0.54,3.59c0,1.25-0.18,2.44-0.54,3.56
		s-0.88,2.1-1.56,2.94s-1.53,1.51-2.52,2s-2.14,0.74-3.43,0.74c-1.28,0-2.41-0.25-3.4-0.74s-1.82-1.16-2.5-2s-1.18-1.83-1.53-2.94
		S744.16,584.99,744.16,583.74z M746.76,583.74c0,0.94,0.12,1.83,0.37,2.66s0.6,1.58,1.05,2.21s1.02,1.15,1.68,1.52
		s1.41,0.56,2.24,0.56s1.58-0.19,2.26-0.56s1.25-0.88,1.72-1.52s0.84-1.38,1.09-2.21s0.38-1.73,0.38-2.66s-0.13-1.83-0.38-2.68
		s-0.62-1.6-1.09-2.24s-1.05-1.16-1.72-1.54s-1.43-0.57-2.26-0.57s-1.58,0.19-2.24,0.57s-1.22,0.89-1.68,1.54s-0.81,1.39-1.05,2.24
		S746.76,582.8,746.76,583.74z"/>
	<path class="st1" d="M764.21,574.74h2.6l-0.11,2.97c0.55-0.97,1.2-1.72,1.94-2.23s1.61-0.77,2.61-0.77c0.08,0,0.2,0.01,0.34,0.02
		s0.3,0.03,0.46,0.04s0.31,0.04,0.46,0.07s0.26,0.06,0.34,0.1v2.65c-0.27-0.09-0.57-0.17-0.91-0.22s-0.59-0.08-0.76-0.08
		c-0.69,0-1.31,0.13-1.85,0.39s-1,0.61-1.37,1.05s-0.66,0.94-0.86,1.51s-0.3,1.16-0.3,1.78v10.62h-2.6V574.74z"/>
	<path class="st1" d="M785.08,587.19c0.01,0.64,0.12,1.19,0.33,1.63s0.5,0.81,0.86,1.09s0.79,0.49,1.27,0.62s1.02,0.19,1.61,0.19
		c0.47,0,0.96-0.04,1.49-0.13s1-0.24,1.43-0.45s0.79-0.5,1.07-0.85s0.42-0.81,0.42-1.36c0-0.5-0.15-0.93-0.46-1.28
		s-0.7-0.66-1.2-0.93s-1.05-0.51-1.69-0.73s-1.28-0.44-1.93-0.68s-1.3-0.49-1.93-0.76s-1.2-0.61-1.69-0.99s-0.89-0.84-1.2-1.37
		s-0.46-1.16-0.46-1.9c0-0.77,0.17-1.46,0.51-2.07s0.79-1.12,1.36-1.54s1.22-0.73,1.96-0.95s1.51-0.33,2.3-0.33
		c0.9,0,1.74,0.11,2.51,0.33s1.45,0.54,2.03,0.97s1.04,0.96,1.39,1.6s0.54,1.37,0.57,2.21h-2.67c-0.06-0.47-0.2-0.88-0.41-1.23
		s-0.5-0.64-0.84-0.87s-0.74-0.4-1.18-0.51s-0.91-0.17-1.4-0.17c-0.57,0-1.08,0.07-1.52,0.21s-0.81,0.33-1.11,0.57
		s-0.52,0.52-0.68,0.83s-0.23,0.64-0.23,0.98c0,0.46,0.15,0.86,0.46,1.2s0.7,0.64,1.2,0.91s1.05,0.52,1.69,0.74s1.28,0.45,1.93,0.69
		s1.3,0.5,1.93,0.78s1.2,0.61,1.69,0.98s0.89,0.8,1.2,1.29s0.46,1.07,0.46,1.74c0,0.96-0.19,1.78-0.57,2.45s-0.89,1.22-1.54,1.65
		s-1.39,0.74-2.24,0.94s-1.74,0.3-2.66,0.3c-0.9,0-1.76-0.12-2.57-0.36s-1.52-0.6-2.13-1.08s-1.1-1.08-1.47-1.81
		s-0.57-1.58-0.61-2.55H785.08z"/>
	<path class="st1" d="M801.71,584.13c0.01,0.82,0.16,1.63,0.43,2.42s0.65,1.49,1.12,2.11s1.03,1.11,1.68,1.49s1.34,0.57,2.09,0.57
		c2.53,0,4.21-1.18,5.04-3.53h2.37c-0.2,0.91-0.53,1.73-1,2.45s-1.04,1.33-1.71,1.83s-1.41,0.88-2.21,1.13s-1.64,0.39-2.5,0.39
		c-1.23,0-2.34-0.26-3.33-0.79s-1.84-1.23-2.54-2.11s-1.24-1.9-1.62-3.05s-0.56-2.36-0.56-3.63c0-1.18,0.19-2.32,0.56-3.41
		s0.91-2.05,1.61-2.88s1.54-1.49,2.53-1.99s2.1-0.74,3.33-0.74c1.2,0,2.27,0.22,3.23,0.67s1.77,1.06,2.45,1.85s1.2,1.71,1.56,2.76
		s0.54,2.2,0.54,3.43v1.04H801.71z M812.12,582.12c-0.02-0.75-0.16-1.45-0.41-2.11s-0.6-1.23-1.05-1.72s-1-0.88-1.64-1.16
		s-1.37-0.42-2.16-0.42c-0.73,0-1.4,0.15-2.02,0.46s-1.16,0.71-1.62,1.21s-0.82,1.08-1.08,1.73s-0.4,1.32-0.41,2.01H812.12z"/>
	<path class="st1" d="M818.83,574.74h2.6l-0.11,2.97c0.55-0.97,1.2-1.72,1.94-2.23s1.61-0.77,2.61-0.77c0.08,0,0.2,0.01,0.34,0.02
		s0.3,0.03,0.46,0.04s0.31,0.04,0.46,0.07s0.26,0.06,0.34,0.1v2.65c-0.27-0.09-0.57-0.17-0.91-0.22s-0.59-0.08-0.76-0.08
		c-0.69,0-1.31,0.13-1.85,0.39s-1,0.61-1.37,1.05s-0.66,0.94-0.86,1.51s-0.3,1.16-0.3,1.78v10.62h-2.6V574.74z"/>
	<path class="st1" d="M836.34,589.56l5.15-14.82h2.74l-6.47,17.89h-2.83l-6.52-17.89h2.79L836.34,589.56z"/>
	<path class="st1" d="M850.03,567.99v3.04h-2.6v-3.04H850.03z M850.03,574.74v17.89h-2.6v-17.89H850.03z"/>
	<path class="st1" d="M866.19,580.12c-0.36-1.24-0.9-2.12-1.6-2.64s-1.63-0.77-2.78-0.77c-0.81,0-1.53,0.18-2.16,0.54
		s-1.16,0.85-1.59,1.46s-0.76,1.31-0.98,2.11s-0.34,1.63-0.34,2.5c0,0.9,0.11,1.8,0.34,2.68s0.56,1.67,0.99,2.36
		s0.96,1.25,1.58,1.68s1.32,0.64,2.11,0.64c0.63,0,1.2-0.11,1.7-0.34s0.93-0.54,1.28-0.92s0.65-0.84,0.89-1.35s0.4-1.07,0.51-1.65
		H869c-0.13,1.02-0.39,1.94-0.78,2.75s-0.9,1.51-1.53,2.07s-1.37,1-2.21,1.3s-1.79,0.45-2.82,0.45c-0.87,0-1.66-0.13-2.37-0.4
		s-1.35-0.64-1.91-1.1s-1.04-1.01-1.45-1.63s-0.75-1.3-1.01-2.01s-0.46-1.46-0.59-2.22s-0.19-1.53-0.19-2.29
		c0-1.23,0.18-2.39,0.54-3.47s0.88-2.03,1.56-2.84s1.49-1.45,2.43-1.92s2.02-0.7,3.2-0.7c1.03,0,1.95,0.14,2.75,0.43
		s1.5,0.69,2.08,1.2s1.07,1.12,1.44,1.82s0.64,1.46,0.81,2.29H866.19z"/>
	<path class="st1" d="M875.61,567.99v3.04h-2.6v-3.04H875.61z M875.61,574.74v17.89h-2.6v-17.89H875.61z"/>
	<path class="st1" d="M879.7,583.74c0-1.27,0.17-2.46,0.52-3.59s0.86-2.12,1.53-2.97s1.51-1.53,2.5-2.03s2.12-0.76,3.4-0.76
		c1.29,0,2.43,0.25,3.43,0.76s1.84,1.18,2.52,2.03s1.21,1.84,1.56,2.97s0.54,2.33,0.54,3.59c0,1.25-0.18,2.44-0.54,3.56
		s-0.88,2.1-1.56,2.94s-1.53,1.51-2.52,2s-2.14,0.74-3.43,0.74c-1.28,0-2.41-0.25-3.4-0.74s-1.82-1.16-2.5-2s-1.18-1.83-1.53-2.94
		S879.7,584.99,879.7,583.74z M882.3,583.74c0,0.94,0.12,1.83,0.37,2.66s0.6,1.58,1.05,2.21s1.02,1.15,1.68,1.52
		s1.41,0.56,2.24,0.56s1.58-0.19,2.26-0.56s1.25-0.88,1.72-1.52s0.84-1.38,1.09-2.21s0.38-1.73,0.38-2.66s-0.13-1.83-0.38-2.68
		s-0.62-1.6-1.09-2.24s-1.05-1.16-1.72-1.54s-1.43-0.57-2.26-0.57s-1.58,0.19-2.24,0.57s-1.22,0.89-1.68,1.54s-0.81,1.39-1.05,2.24
		S882.3,582.8,882.3,583.74z"/>
</g>
<g>
	<g>
		<path class="st2" d="M603.7,166.18c1.37,7.94,19.61,44.84,24.12,54.51l24.46,53.9l12.76-0.15c4.46-5.3,15.48-32.49,18.78-39.67
			c4.7-10.22,12.79-32.38,18.72-38.99l0.29,100.3l14.73,0.11l-0.15-136.72l-15.23,0.23c-4.38,13.9-14.87,33.9-21.33,48.36
			c-2.99,6.68-18.2,44.2-22.1,46.02l-43.18-93.14l-14.06-0.57L603.7,166.18z"/>
		<path class="st3" d="M603.7,166.18c1.37,7.94,19.61,44.84,24.12,54.51l24.46,53.9l12.76-0.15c4.46-5.3,15.48-32.49,18.78-39.67
			c4.7-10.22,12.79-32.38,18.72-38.99l0.29,100.3l14.73,0.11l-0.15-136.72l-15.23,0.23c-4.38,13.9-14.87,33.9-21.33,48.36
			c-2.99,6.68-18.2,44.2-22.1,46.02l-43.18-93.14l-14.06-0.57L603.7,166.18z"/>
		<path class="st2" d="M815.92,280.37l-9.24-9.43c-8.59,5.35-24.25,22.06-46.92,7.69c-15.67-9.93-14.68-28.15-14.67-51.58
			c0-22.76-0.36-40.36,14.9-50.25c18.92-12.25,34.13-1.9,46.43,7.74l9.85-9.23c-11.85-15.25-42.27-22.8-63.42-10.59
			c-22.03,12.71-22.82,31.22-22.82,62.33c0.01,31.2,0.34,50.28,21.81,63.23c10.11,6.09,23.21,8.77,37.02,5.98
			C798.86,294.23,812.34,286.46,815.92,280.37z"/>
		<path class="st3" d="M815.92,280.37l-9.24-9.43c-8.59,5.35-24.25,22.06-46.92,7.69c-15.67-9.93-14.68-28.15-14.67-51.58
			c0-22.76-0.36-40.36,14.9-50.25c18.92-12.25,34.13-1.9,46.43,7.74l9.85-9.23c-11.85-15.25-42.27-22.8-63.42-10.59
			c-22.03,12.71-22.82,31.22-22.82,62.33c0.01,31.2,0.34,50.28,21.81,63.23c10.11,6.09,23.21,8.77,37.02,5.98
			C798.86,294.23,812.34,286.46,815.92,280.37z"/>
		<path class="st2" d="M541.25,285.45c21.55,19.09,56.96,14.8,69.16-8.93c6.28-12.22,5.05-29.18,4.85-44.59
			c-0.12-9.57-5.54-17.63-9.63-27.35c-1.44-3.42-2.66-6.14-5.33-7.9c-0.29,38.41,8.5,82.53-22.37,86.9
			c-13.46,1.91-18.48-3.22-27.3-8.42L541.25,285.45z"/>
		<path class="st3" d="M541.25,285.45c21.55,19.09,56.96,14.8,69.16-8.93c6.28-12.22,5.05-29.18,4.85-44.59
			c-0.12-9.57-5.54-17.63-9.63-27.35c-1.44-3.42-2.66-6.14-5.33-7.9c-0.29,38.41,8.5,82.53-22.37,86.9
			c-13.46,1.91-18.48-3.22-27.3-8.42L541.25,285.45z"/>
		<path class="st2" d="M603.7,166.18l-2.18-5.8l14.06,0.57c-2.17-3.7-5.9-2.57-15.25-1.95C600.96,167.39,602.23,164.89,603.7,166.18
			z"/>
		<path class="st3" d="M603.7,166.18l-2.18-5.8l14.06,0.57c-2.17-3.7-5.9-2.57-15.25-1.95C600.96,167.39,602.23,164.89,603.7,166.18
			z"/>
		<path class="st3" d="M800.17,411.06c0,2.48,0.48,4.29,1.43,5.44c0.96,1.15,2.15,1.73,3.55,1.73c1.5,0,2.78-0.59,3.81-1.77
			c1.05-1.18,1.56-2.92,1.56-5.24c0-2.42-0.5-4.21-1.5-5.38c-0.99-1.17-2.25-1.76-3.77-1.76c-1.48,0-2.7,0.58-3.66,1.73
			C800.65,406.95,800.17,408.7,800.17,411.06 M794.63,424.71l7.08,0.86c0.12,0.83,0.39,1.4,0.81,1.72c0.59,0.44,1.52,0.67,2.78,0.67
			c1.62,0,2.83-0.24,3.64-0.73c0.54-0.32,0.95-0.84,1.23-1.56c0.19-0.51,0.28-1.46,0.28-2.84l0.03-3.42
			c-1.86,2.55-4.2,3.81-7.03,3.81c-3.14,0-5.63-1.33-7.47-3.98c-1.44-2.09-2.16-4.71-2.16-7.83c0-3.92,0.95-6.91,2.83-8.97
			c1.88-2.07,4.23-3.1,7.04-3.1c2.89,0,5.28,1.27,7.16,3.81v-3.31h5.77v20.97c0,2.76-0.23,4.82-0.68,6.18
			c-0.45,1.37-1.09,2.43-1.91,3.22c-0.82,0.77-1.92,1.39-3.29,1.82c-1.37,0.44-3.11,0.66-5.2,0.66c-3.97,0-6.77-0.68-8.43-2.04
			c-1.66-1.37-2.49-3.09-2.49-5.18C794.61,425.26,794.62,425,794.63,424.71z M788.96,423.22h-6.17v-11.92c0-2.53-0.13-4.15-0.4-4.89
			c-0.27-0.74-0.7-1.31-1.3-1.73c-0.6-0.41-1.32-0.61-2.16-0.61c-1.08,0-2.05,0.29-2.91,0.88c-0.86,0.59-1.45,1.37-1.77,2.33
			c-0.32,0.97-0.48,2.76-0.48,5.37v10.58h-6.17v-23.39h5.72v3.43c2.05-2.62,4.62-3.93,7.74-3.93c1.37,0,2.62,0.25,3.76,0.74
			c1.14,0.49,2,1.12,2.57,1.88c0.59,0.77,0.99,1.63,1.22,2.6c0.23,0.97,0.35,2.35,0.35,4.15V423.22z M755.17,423.22v-23.39h6.18
			v23.39H755.17z M755.17,396.69v-5.72h6.18v5.72H755.17z M750.85,399.84v4.91h-4.24v9.47c0,1.92,0.04,3.04,0.12,3.36
			c0.08,0.32,0.26,0.58,0.56,0.79c0.28,0.2,0.63,0.31,1.04,0.31c0.58,0,1.41-0.2,2.49-0.59l0.52,4.8c-1.44,0.62-3.06,0.93-4.87,0.93
			c-1.11,0-2.11-0.19-3.01-0.56c-0.89-0.38-1.55-0.86-1.96-1.46c-0.42-0.6-0.71-1.41-0.87-2.43c-0.13-0.72-0.2-2.18-0.2-4.38v-10.24
			h-2.84v-4.91h2.84v-4.64l6.17-3.65v8.29H750.85z M727.65,423.22v-32.26h6.17v32.26H727.65z M715.58,423.22v-3.5
			c-0.86,1.24-1.97,2.24-3.37,2.98c-1.39,0.73-2.85,1.1-4.39,1.1c-1.58,0-2.99-0.35-4.24-1.04c-1.25-0.69-2.15-1.67-2.71-2.92
			c-0.56-1.25-0.84-2.98-0.84-5.19v-14.83h6.17v10.77c0,3.3,0.11,5.31,0.35,6.05c0.23,0.74,0.64,1.34,1.25,1.77
			c0.6,0.44,1.37,0.65,2.3,0.65c1.06,0,2.01-0.29,2.85-0.87c0.84-0.58,1.41-1.3,1.72-2.16c0.31-0.86,0.47-2.97,0.47-6.32v-9.88h6.17
			v23.39H715.58z M672.86,416.65l6.22-0.95c0.26,1.2,0.8,2.1,1.61,2.72c0.8,0.62,1.94,0.93,3.39,0.93c1.6,0,2.8-0.29,3.61-0.88
			c0.54-0.41,0.81-0.97,0.81-1.66c0-0.46-0.15-0.86-0.44-1.16c-0.31-0.29-1-0.57-2.07-0.82c-4.99-1.1-8.16-2.11-9.49-3.02
			c-1.85-1.27-2.78-3.03-2.78-5.27c0-2.04,0.8-3.74,2.4-5.12c1.6-1.38,4.08-2.07,7.44-2.07c3.2,0,5.58,0.52,7.13,1.57
			c1.55,1.05,2.63,2.6,3.21,4.65l-5.81,1.08c-0.25-0.91-0.73-1.62-1.43-2.11c-0.7-0.49-1.7-0.73-2.99-0.73
			c-1.64,0-2.81,0.23-3.52,0.68c-0.47,0.32-0.71,0.74-0.71,1.25c0,0.44,0.2,0.82,0.61,1.13c0.56,0.41,2.49,0.99,5.8,1.74
			c3.3,0.75,5.61,1.67,6.92,2.76c1.3,1.1,1.94,2.64,1.94,4.6c0,2.14-0.89,3.99-2.69,5.53c-1.79,1.54-4.44,2.31-7.95,2.31
			c-3.18,0-5.71-0.65-7.57-1.93C674.65,420.6,673.43,418.85,672.86,416.65z M668.81,423.22h-6.18v-11.92c0-2.53-0.13-4.15-0.4-4.89
			c-0.27-0.74-0.7-1.31-1.3-1.73c-0.6-0.41-1.32-0.61-2.16-0.61c-1.08,0-2.05,0.29-2.91,0.88c-0.86,0.59-1.45,1.37-1.76,2.33
			c-0.32,0.97-0.48,2.76-0.48,5.37v10.58h-6.17v-23.39h5.72v3.43c2.05-2.62,4.62-3.93,7.74-3.93c1.37,0,2.62,0.25,3.76,0.74
			c1.14,0.49,2,1.12,2.58,1.88c0.58,0.77,0.99,1.63,1.22,2.6c0.23,0.97,0.34,2.35,0.34,4.15V423.22z M624.93,411.58
			c0,2.32,0.55,4.1,1.64,5.33c1.11,1.24,2.46,1.86,4.07,1.86c1.61,0,2.96-0.62,4.05-1.86c1.09-1.23,1.64-3.03,1.64-5.38
			c0-2.29-0.55-4.05-1.64-5.29c-1.09-1.24-2.44-1.85-4.05-1.85c-1.61,0-2.96,0.61-4.07,1.85
			C625.48,407.48,624.93,409.25,624.93,411.58z M618.58,411.25c0-2.06,0.5-4.05,1.52-5.97c1.02-1.93,2.45-3.4,4.3-4.41
			c1.85-1.01,3.92-1.53,6.21-1.53c3.54,0,6.43,1.15,8.69,3.45c2.26,2.3,3.39,5.21,3.39,8.72c0,3.54-1.14,6.48-3.42,8.81
			c-2.28,2.33-5.15,3.49-8.61,3.49c-2.14,0-4.18-0.49-6.13-1.46c-1.94-0.97-3.42-2.39-4.43-4.27
			C619.08,416.22,618.58,413.93,618.58,411.25z M608.16,411.33l6.31,1.94c-0.97,3.55-2.58,6.19-4.84,7.91
			c-2.25,1.72-5.11,2.58-8.57,2.58c-4.29,0-7.81-1.46-10.58-4.39c-2.76-2.93-4.14-6.93-4.14-12.02c0-5.37,1.39-9.55,4.16-12.52
			c2.77-2.97,6.42-4.46,10.94-4.46c3.95,0,7.16,1.17,9.62,3.51c1.47,1.38,2.57,3.36,3.3,5.95l-6.44,1.53
			c-0.38-1.67-1.18-2.99-2.39-3.96c-1.22-0.97-2.69-1.45-4.42-1.45c-2.4,0-4.34,0.86-5.83,2.58c-1.49,1.71-2.24,4.49-2.24,8.33
			c0,4.07,0.74,6.98,2.2,8.7c1.47,1.74,3.38,2.6,5.73,2.6c1.73,0,3.23-0.55,4.48-1.65C606.72,415.42,607.62,413.7,608.16,411.33z
			 M551.74,408.47c-1.41,0.72-2.47,1.59-3.18,2.6c-0.7,1.01-1.05,2.05-1.05,3.1c0,1.34,0.44,2.43,1.31,3.27
			c0.86,0.85,2.03,1.27,3.49,1.27c0.96,0,1.89-0.19,2.78-0.57c0.89-0.38,1.86-1.01,2.91-1.9L551.74,408.47z M554.16,401.74
			l1.66-1.28c1.22-0.95,1.83-1.9,1.83-2.84c0-0.8-0.29-1.47-0.89-2.03c-0.59-0.56-1.38-0.84-2.39-0.84c-0.98,0-1.74,0.25-2.3,0.73
			c-0.55,0.5-0.83,1.07-0.83,1.71c0,0.77,0.46,1.69,1.4,2.78L554.16,401.74z M570.99,419.31l-3.75,4.77
			c-1.83-0.89-3.6-2.12-5.29-3.69c-1.3,1.17-2.69,2.04-4.15,2.59c-1.46,0.56-3.21,0.83-5.23,0.83c-4.01,0-7.03-1.13-9.06-3.4
			c-1.57-1.74-2.35-3.75-2.35-6.03c0-2.07,0.62-3.94,1.86-5.59c1.23-1.65,3.08-3.09,5.53-4.31c-1.1-1.3-1.94-2.55-2.49-3.74
			c-0.56-1.18-0.84-2.31-0.84-3.37c0-1.95,0.78-3.61,2.34-4.97c1.56-1.36,3.79-2.04,6.67-2.04c2.78,0,4.96,0.71,6.53,2.13
			c1.57,1.43,2.35,3.16,2.35,5.22c0,1.31-0.38,2.54-1.16,3.72c-0.77,1.17-2.33,2.5-4.67,3.98l4.44,5.97
			c0.52-0.93,0.97-2.15,1.36-3.66l5.6,1.26c-0.56,1.98-1.05,3.44-1.46,4.36c-0.4,0.91-0.85,1.69-1.32,2.3
			c0.69,0.64,1.58,1.35,2.68,2.12C569.68,418.55,570.48,419.06,570.99,419.31z M717.6,360.72c0,2.48,0.48,4.29,1.43,5.44
			c0.96,1.15,2.15,1.73,3.55,1.73c1.5,0,2.78-0.59,3.81-1.77c1.04-1.18,1.56-2.92,1.56-5.24c0-2.42-0.5-4.21-1.5-5.38
			c-0.99-1.17-2.25-1.76-3.78-1.76c-1.48,0-2.7,0.58-3.66,1.73C718.08,356.61,717.6,358.36,717.6,360.72z M712.06,374.37l7.07,0.86
			c0.12,0.83,0.39,1.4,0.81,1.72c0.59,0.44,1.52,0.67,2.78,0.67c1.61,0,2.82-0.24,3.64-0.73c0.54-0.32,0.95-0.84,1.23-1.56
			c0.19-0.51,0.29-1.46,0.29-2.84l0.03-3.42c-1.86,2.55-4.21,3.82-7.03,3.82c-3.14,0-5.63-1.33-7.47-3.98
			c-1.44-2.09-2.16-4.71-2.16-7.83c0-3.92,0.95-6.91,2.83-8.97c1.88-2.07,4.24-3.1,7.04-3.1c2.89,0,5.28,1.27,7.16,3.81v-3.31h5.77
			v20.97c0,2.76-0.23,4.82-0.68,6.18c-0.45,1.37-1.09,2.43-1.92,3.21c-0.82,0.78-1.92,1.39-3.29,1.83c-1.37,0.44-3.11,0.66-5.2,0.66
			c-3.97,0-6.77-0.68-8.44-2.04c-1.66-1.37-2.48-3.08-2.48-5.18C712.04,374.92,712.05,374.67,712.06,374.37z M706.39,372.88h-6.18
			v-11.92c0-2.52-0.13-4.16-0.4-4.89c-0.27-0.74-0.7-1.31-1.3-1.73c-0.6-0.41-1.32-0.62-2.16-0.62c-1.08,0-2.05,0.29-2.91,0.88
			c-0.86,0.59-1.45,1.37-1.76,2.33c-0.32,0.97-0.48,2.76-0.48,5.37v10.58h-6.17V349.5h5.72v3.43c2.05-2.62,4.62-3.93,7.74-3.93
			c1.37,0,2.62,0.25,3.76,0.73c1.14,0.5,2,1.12,2.58,1.88c0.58,0.77,0.99,1.63,1.22,2.6c0.23,0.97,0.35,2.35,0.35,4.15V372.88z
			 M672.6,372.88V349.5h6.18v23.38H672.6z M672.6,346.34v-5.72h6.18v5.72H672.6z M650.04,360.74c0,2.5,0.34,4.31,1.03,5.43
			c1,1.62,2.39,2.43,4.17,2.43c1.42,0,2.63-0.61,3.62-1.83c1-1.21,1.5-3.03,1.5-5.44c0-2.7-0.48-4.63-1.45-5.82
			c-0.97-1.18-2.2-1.78-3.71-1.78c-1.46,0-2.69,0.59-3.68,1.76C650.54,356.66,650.04,358.41,650.04,360.74z M666.53,372.88h-5.72
			v-3.43c-0.95,1.34-2.09,2.34-3.39,3.01c-1.3,0.67-2.61,1.01-3.94,1.01c-2.7,0-5-1.08-6.92-3.25c-1.92-2.17-2.88-5.19-2.88-9.07
			c0-3.96,0.93-6.98,2.8-9.05c1.87-2.06,4.23-3.09,7.08-3.09c2.61,0,4.88,1.09,6.79,3.26v-11.64h6.17V372.88z M638.83,372.88h-6.17
			v-11.92c0-2.52-0.13-4.16-0.4-4.89c-0.27-0.74-0.7-1.31-1.3-1.73c-0.6-0.41-1.32-0.62-2.16-0.62c-1.08,0-2.05,0.29-2.91,0.88
			c-0.86,0.59-1.45,1.37-1.76,2.33c-0.32,0.97-0.48,2.76-0.48,5.37v10.58h-6.17V349.5h5.72v3.43c2.05-2.62,4.62-3.93,7.74-3.93
			c1.37,0,2.62,0.25,3.76,0.73c1.14,0.5,2,1.12,2.58,1.88c0.58,0.77,0.99,1.63,1.22,2.6c0.23,0.97,0.34,2.35,0.34,4.15V372.88z
			 M605.39,361.71c-0.79,0.26-2.04,0.58-3.76,0.95c-1.71,0.37-2.84,0.73-3.36,1.08c-0.8,0.58-1.21,1.3-1.21,2.18
			c0,0.87,0.32,1.61,0.97,2.24c0.65,0.63,1.46,0.95,2.46,0.95c1.11,0,2.18-0.37,3.19-1.1c0.74-0.56,1.24-1.24,1.47-2.05
			c0.16-0.53,0.24-1.53,0.24-3.01V361.71z M597.09,356.71l-5.59-0.99c0.63-2.28,1.72-3.97,3.26-5.07c1.54-1.1,3.83-1.64,6.86-1.64
			c2.76,0,4.81,0.32,6.17,0.97c1.34,0.65,2.3,1.48,2.84,2.49c0.55,1.01,0.83,2.85,0.83,5.54l-0.09,7.21c0,2.05,0.1,3.57,0.29,4.54
			c0.2,0.98,0.56,2.02,1.1,3.13h-6.13c-0.16-0.4-0.36-1.01-0.59-1.8c-0.1-0.37-0.17-0.61-0.22-0.72c-1.05,1.03-2.18,1.81-3.38,2.33
			c-1.2,0.52-2.48,0.78-3.84,0.78c-2.39,0-4.29-0.66-5.67-1.96c-1.38-1.3-2.07-2.95-2.07-4.95c0-1.31,0.32-2.49,0.95-3.53
			c0.63-1.03,1.51-1.82,2.65-2.37c1.13-0.55,2.77-1.03,4.91-1.44c2.88-0.54,4.89-1.05,6-1.52v-0.62c0-1.2-0.29-2.06-0.88-2.58
			c-0.59-0.51-1.71-0.77-3.33-0.77c-1.1,0-1.96,0.22-2.58,0.66C597.98,354.83,597.48,355.6,597.09,356.71z M580.87,372.88h-6.17
			V349.5h5.72v3.32c0.98-1.57,1.87-2.6,2.66-3.09c0.79-0.49,1.68-0.73,2.68-0.73c1.41,0,2.77,0.39,4.08,1.16l-1.92,5.39
			c-1.04-0.68-2.01-1.01-2.9-1.01c-0.87,0-1.61,0.24-2.21,0.71c-0.6,0.48-1.07,1.34-1.42,2.58c-0.35,1.25-0.52,3.86-0.52,7.83
			V372.88z M549,358.78v8.65h6.04c2.34,0,3.84-0.07,4.47-0.2c0.97-0.18,1.76-0.61,2.37-1.29c0.61-0.69,0.91-1.6,0.91-2.75
			c0-0.97-0.23-1.79-0.71-2.47c-0.47-0.68-1.15-1.17-2.04-1.48c-0.89-0.31-2.82-0.47-5.78-0.47H549z M549,345.98v7.43h4.27
			c2.53,0,4.11-0.04,4.72-0.11c1.11-0.13,1.99-0.51,2.63-1.15c0.64-0.64,0.95-1.47,0.95-2.51c0-1-0.28-1.8-0.83-2.42
			c-0.55-0.62-1.37-1-2.45-1.13c-0.65-0.08-2.5-0.11-5.56-0.11H549z M542.47,340.62h12.9c2.56,0,4.46,0.1,5.71,0.31
			c1.26,0.22,2.38,0.66,3.37,1.33c0.99,0.67,1.82,1.57,2.48,2.69c0.66,1.12,0.99,2.38,0.99,3.77c0,1.5-0.4,2.89-1.22,4.15
			c-0.81,1.26-1.92,2.2-3.3,2.83c1.96,0.58,3.46,1.56,4.52,2.94c1.05,1.38,1.58,3,1.58,4.87c0,1.47-0.34,2.9-1.02,4.29
			c-0.68,1.39-1.62,2.5-2.8,3.33c-1.18,0.83-2.64,1.34-4.37,1.53c-1.08,0.11-3.7,0.19-7.85,0.22h-10.99V340.62z"/>
	</g>
</g>
</svg>
